<?xml version="1.0" encoding="UTF-8" standalone="no"?>
<!-- Created with Inkscape (http://www.inkscape.org/) -->

<svg
   width="1920"
   height="1080"
   viewBox="0 0 508 285.75"
   version="1.1"
   id="svg1"
   inkscape:version="1.3 (0e150ed6c4, 2023-07-21)"
   sodipodi:docname="hero-top.svg"
   xmlns:inkscape="http://www.inkscape.org/namespaces/inkscape"
   xmlns:sodipodi="http://sodipodi.sourceforge.net/DTD/sodipodi-0.dtd"
   xmlns="http://www.w3.org/2000/svg"
   xmlns:svg="http://www.w3.org/2000/svg">
  <sodipodi:namedview
     id="namedview1"
     pagecolor="#505050"
     bordercolor="#ffffff"
     borderopacity="1"
     inkscape:showpageshadow="0"
     inkscape:pageopacity="0"
     inkscape:pagecheckerboard="1"
     inkscape:deskcolor="#d1d1d1"
     inkscape:document-units="mm"
     inkscape:zoom="0.366586"
     inkscape:cx="762.44047"
     inkscape:cy="563.30575"
     inkscape:window-width="1920"
     inkscape:window-height="1009"
     inkscape:window-x="3832"
     inkscape:window-y="-8"
     inkscape:window-maximized="1"
     inkscape:current-layer="layer1" />
  <defs
     id="defs1" />
  <g
     inkscape:label="Layer 1"
     inkscape:groupmode="layer"
     id="layer1">
    <path
       d="m 507.53541,262.06447 a 273.42351,66.778933 0 0 0 -0.587,-0.34606 273.42351,66.778933 0 0 0 -5.3677,-2.79243 273.42351,66.778933 0 0 0 -5.8895,-2.72897 273.42351,66.778933 0 0 0 -6.3996,-2.65978 273.42351,66.778933 0 0 0 -6.8957,-2.58462 273.42351,66.778933 0 0 0 -7.3768,-2.504 273.42351,66.778933 0 0 0 -7.843,-2.41844 273.42351,66.778933 0 0 0 -8.2915,-2.32711 273.42351,66.778933 0 0 0 -8.7229,-2.23109 273.42351,66.778933 0 0 0 -9.1354,-2.1304 273.42351,66.778933 0 0 0 -9.5281,-2.02496 273.42351,66.778933 0 0 0 -9.9017,-1.91557 273.42351,66.778933 0 0 0 -10.2526,-1.80168 273.42351,66.778933 0 0 0 -10.5829,-1.68423 273.42351,66.778933 0 0 0 -10.8897,-1.56275 273.42351,66.778933 0 0 0 -11.1735,-1.43848 273.42351,66.778933 0 0 0 -11.4339,-1.31095 273.42351,66.778933 0 0 0 -11.6696,-1.18064 273.42351,66.778933 0 0 0 -11.8804,-1.04779 273.42351,66.778933 0 0 0 -12.0659,-0.9124 273.42351,66.778933 0 0 0 -12.2251,-0.77553 273.42351,66.778933 0 0 0 -12.3595,-0.63645 273.42351,66.778933 0 0 0 -12.4659,-0.4969 273.42351,66.778933 0 0 0 -12.547,-0.35548 273.42351,66.778933 0 0 0 -12.6008,-0.21353 273.42351,66.778933 0 0 0 -12.6277,-0.0711 273.42351,66.778933 0 0 0 -35.6887,0.57102 273.42351,66.778933 0 0 0 -35.0785,1.70437 273.42351,66.778933 0 0 0 -33.8672,2.80751 273.42351,66.778933 0 0 0 -32.0771,3.86367 273.42351,66.778933 0 0 0 -29.737701,4.85294 273.42351,66.778933 0 0 0 -26.8904,5.75936 273.42351,66.778933 0 0 0 -23.5815,6.56744 273.42351,66.778933 0 0 0 -19.8706,7.26299 273.42351,66.778933 0 0 0 -15.8186998,7.83435 273.42351,66.778933 0 0 0 -4.07880004,2.9347 v 18.73781 H 507.53541 Z"
       style="fill:#fefefe;fill-opacity:1;stroke-width:1.07527;stroke-linecap:round;stroke-linejoin:bevel;paint-order:stroke fill markers"
       id="path5" />
    <g
       id="g9"
       transform="matrix(0.26458333,0,0,0.26458333,38.506359,38.435192)">
      <rect
         style="fill:#4d3b16;fill-opacity:1;stroke-width:4.06399;stroke-linecap:round;stroke-linejoin:bevel;paint-order:markers fill stroke"
         id="rect5-5"
         width="232.24368"
         height="266.58014"
         x="374.52692"
         y="613.97229"
         ry="50"
         rx="50" />
      <rect
         style="fill:#775100;fill-opacity:1;stroke-width:4.06399;stroke-linecap:round;stroke-linejoin:bevel;paint-order:markers fill stroke"
         id="rect5"
         width="214.67416"
         height="255.39954"
         x="372.7059"
         y="611.55414"
         ry="50"
         rx="49.999996" />
      <circle
         style="fill:#b09906;fill-opacity:1;stroke-width:4.064;stroke-linecap:round;stroke-linejoin:bevel;paint-order:markers fill stroke"
         id="path6"
         cx="487.15497"
         cy="584.586"
         r="57.500259" />
    </g>
    <g
       id="g8"
       transform="matrix(0.26458333,0,0,0.26458333,39.701659,35.446952)">
      <rect
         style="fill:#a5a2af;fill-opacity:1;stroke-width:4.064;stroke-linecap:round;stroke-linejoin:bevel;paint-order:markers fill stroke"
         id="rect6"
         width="215.62592"
         height="177.2925"
         x="1014.2407"
         y="651.66962"
         rx="96.319656"
         ry="71.875336" />
      <rect
         style="fill:#54525a;fill-opacity:1;stroke-width:4.06401;stroke-linecap:round;stroke-linejoin:bevel;paint-order:markers fill stroke"
         id="rect6-2"
         width="79.861412"
         height="75.069809"
         x="988.10516"
         y="641.89362"
         rx="96.319656"
         ry="71.875336" />
      <rect
         style="fill:#61587c;fill-opacity:1;stroke-width:4.064;stroke-linecap:round;stroke-linejoin:bevel;paint-order:markers fill stroke"
         id="rect6-7"
         width="175.61491"
         height="92.913368"
         x="1075.2853"
         y="684.27942"
         rx="60.694687"
         ry="25.385422" />
      <path
         d="m 999.2329,700.50797 v -35.1392 c -49.97384,23.58003 -0.1138,-0.26203 -50.76761,23.45146"
         style="fill:#d3d339;fill-opacity:1;stroke-width:4.064;stroke-linecap:round;stroke-linejoin:bevel;paint-order:markers fill stroke"
         id="path8"
         sodipodi:nodetypes="ccc" />
    </g>
    <g
       id="g13"
       transform="matrix(0.26458333,0,0,0.26458333,69.315759,74.821293)">
      <rect
         style="fill:#ffffff;fill-opacity:1;stroke:#bababa;stroke-width:4.064;stroke-linecap:round;stroke-linejoin:bevel;stroke-opacity:1;paint-order:markers fill stroke"
         id="rect12"
         width="386.25882"
         height="156.98824"
         x="467.57648"
         y="352.37646"
         rx="32.422173"
         ry="69.557732" />
      <text
         xml:space="preserve"
         style="font-style:normal;font-weight:normal;font-size:40px;line-height:1.25;font-family:sans-serif;fill:#000000;fill-opacity:1;stroke:none"
         x="517.27057"
         y="415.62354"
         id="text9"><tspan
           sodipodi:role="line"
           id="tspan9"
           x="517.27057"
           y="415.62354"
           style="font-style:normal;font-variant:normal;font-weight:normal;font-stretch:normal;font-size:40px;font-family:Cambria;-inkscape-font-specification:'Cambria, Normal';font-variant-ligatures:normal;font-variant-caps:normal;font-variant-numeric:normal;font-variant-east-asian:normal">What a beautiful</tspan><tspan
           sodipodi:role="line"
           x="517.27057"
           y="466.00348"
           id="tspan10"><tspan
   style="font-style:normal;font-variant:normal;font-weight:normal;font-stretch:normal;font-size:40px;font-family:Cambria;-inkscape-font-specification:'Cambria, Normal';font-variant-ligatures:normal;font-variant-caps:normal;font-variant-numeric:normal;font-variant-east-asian:normal;fill:#ff9100;fill-opacity:1"
   id="tspan11">Artificer</tspan>.</tspan></text>
      <ellipse
         style="fill:#ffffff;fill-opacity:1;stroke:#bababa;stroke-width:4.064;stroke-linecap:round;stroke-linejoin:bevel;stroke-opacity:1;paint-order:markers fill stroke"
         id="path12"
         cx="442.83081"
         cy="433.72333"
         rx="15.811765"
         ry="13.552941" />
      <ellipse
         style="fill:#ffffff;fill-opacity:1;stroke:#bababa;stroke-width:4.064;stroke-linecap:round;stroke-linejoin:bevel;stroke-opacity:1;paint-order:markers fill stroke"
         id="path13"
         cx="421.1312"
         cy="465.50052"
         rx="7.9058824"
         ry="8.4705887" />
    </g>
  </g>
</svg>
